<?xml version="1.0" encoding="utf-8"?>
<!-- Generator: Adobe Illustrator 22.0.1, SVG Export Plug-In . SVG Version: 6.00 Build 0)  -->
<svg version="1.1" id="Capa_1" xmlns="http://www.w3.org/2000/svg" xmlns:xlink="http://www.w3.org/1999/xlink" x="0px" y="0px"
	 viewBox="0 0 340.1 100.8" style="enable-background:new 0 0 340.1 100.8;" xml:space="preserve">
<style type="text/css">
	.st0{fill:#FFFFFF;}
</style>
<g>
	<polygon class="st0" points="82.8,66.9 47.5,99.6 47.6,99.6 127.3,48.2 127.3,47.9 72.6,47.9 	"/>
	<polygon class="st0" points="47.1,99.9 47.1,0.6 5.6,71.8 	"/>
	<polygon class="st0" points="142,48.9 133.8,48.9 133.8,99.6 153.1,99.6 153.1,92.6 142,92.6 	"/>
	<path class="st0" d="M167.5,48.5c-7.5,0-11.6,4.1-11.6,10.1v31.3c0,6.1,4.1,10.1,11.6,10.1c7.5,0,11.6-4,11.6-10.1V58.6
		C179.1,52.5,175,48.5,167.5,48.5z M170.9,89.9c0.4,3.9-7.2,3.9-6.7,0V58.6c-0.5-3.9,7.2-3.9,6.7,0V89.9z"/>
	<path class="st0" d="M195.6,48.5c-7.5,0-11.6,4.1-11.6,10.1v31.3c0,6.1,4.1,10.1,11.6,10.1c7.5,0,11.6-4,11.6-10.1V58.6
		C207.1,52.5,203,48.5,195.6,48.5z M199,89.9c0.4,3.9-7.2,3.9-6.7,0V58.6c-0.5-3.9,7.2-3.9,6.7,0V89.9z"/>
	<path class="st0" d="M224.4,48.9h-11.9v50.7h8.2V80.2h3.7c7.3,0,11.1-3.8,11.1-9.9V58.8C235.6,52.7,231.8,48.9,224.4,48.9z
		 M227.4,70.3c0,2-1,3-3,3h-3.7V55.9h3.7c2,0,3,1,3,3V70.3z"/>
	<path class="st0" d="M262.7,70.3V58.8c0-6.2-3.8-9.9-11.1-9.9h-11.9v50.7h8.2V80.2h2.5l5.2,19.4h8.2l-5.6-20.9
		C261.2,77.1,262.7,74.2,262.7,70.3z M254.5,70.3c0,2-1,3-3,3h-3.7V55.9h3.7c2,0,3,1,3,3V70.3z"/>
	<rect x="268" y="48.9" class="st0" width="8.2" height="50.7"/>
	<path class="st0" d="M298.4,63.8c0,3.9,0.1,8.2,0.2,12.8L291,48.9h-8.9v50.7h7.5V84.7c0-4.1-0.1-8.5-0.2-13.3l7.7,28.2h8.7V48.9
		h-7.5V63.8z"/>
	<path class="st0" d="M334.4,67v-8.4c0-6.2-4.1-10.1-11.6-10.1c-7.5,0-11.6,4.1-11.6,10.1v31.3c0,6.1,4.1,10.1,11.6,10.1
		c7.5,0,11.6-4,11.6-10.1V74.3H323v6.9h3.5v8.6c0,2-1.5,3-3.6,3c-2.2,0-3.3-1-3.3-3V58.6c-0.6-4,7.2-3.8,6.9,0V67H334.4z"/>
</g>
</svg>
